<svg xmlns="http://www.w3.org/2000/svg" viewBox="0 0 12.77263 7.42225"><defs><style>.a{fill:#a53050;}</style></defs><path class="a" d="M9.03991,2.3902c-.23645-.85529-1.60461-.94269-2.31616-.68732a1.50094,1.50094,0,0,0,.00189-.29.11539.11539,0,0,0,.0716-.10315.123.123,0,0,0-.12458-.12152c-.01147.00012-.01874.00946-.02923.01258L6.6441,1.192l-.02-.00885a.10662.10662,0,0,0-.02161-.00953.51551.51551,0,0,0-.07348-.01342A2.6712,2.6712,0,0,1,6.817.62109a5.63786,5.63786,0,0,0,.35352-.6123L7.15289,0a5.64741,5.64741,0,0,1-.35254.61035,2.66,2.66,0,0,0-.29108.54621.51846.51846,0,0,0-.17981-.00092A2.69457,2.69457,0,0,0,5.99175.64453,5.596,5.596,0,0,1,5.58453.06934L5.567.08008a5.71988,5.71988,0,0,0,.40918.57666,2.73646,2.73646,0,0,1,.33325.5025.34073.34073,0,0,0-.07825.014l-.01391.00659c-.00635.00446-.01837.00562-.023.01093l.00043.00878c-.01044-.00335-.0174-.01287-.02887-.0133a.1231.1231,0,0,0-.12793.118.11544.11544,0,0,0,.06872.1051,1.55122,1.55122,0,0,0-.004.3238c-.68408-.29126-2.14807-.23053-2.39343.657-.11413.41272.5083.984.5083.984a1.13891,1.13891,0,0,0,.56336.96722s-.16993.44763-.07416.56952c.09784.12457.18274.07385.18274.07385-.16138.40473-.23084.74158-.07593.91339,0,0-.35968.73285-.21558.92456.14875.19794.37226-.38128.37226-.38128s-.23383.5733-.08826.65673c.149.08539.37415-.52648.37415-.52648s.00219.41058.14941.19366l.39838-.58679a1.46846,1.46846,0,0,0,.32135-.6554.88986.88986,0,0,0,.19439.18091V5.7a.08382.08382,0,0,0,.07569-.00128l-.00006.00134.0028-.00256a.2162.2162,0,0,0,.09052-.06476l.0014-.016A.84377.84377,0,0,0,6.61175,5.478a1.529,1.529,0,0,0,.33356.7005l.39831.58679c.14728.21692.14948-.19366.14948-.19366s.22509.61187.37408.52648c.14557-.08343-.08819-.65673-.08819-.65673s.22345.57922.37225.38128c.1441-.19171-.21558-.92456-.21558-.92456.15485-.17181.08545-.50866-.076-.91339,0,0,.0849.05072.1828-.07385.09571-.12189-.07415-.56952-.07415-.56952a1.13917,1.13917,0,0,0,.56335-.96722S9.15405,2.80292,9.03991,2.3902Z"/></svg>