<svg xmlns="http://www.w3.org/2000/svg" viewBox="0 0 12.77263 7.42225"><defs><style>.a{fill:#a53050;}</style></defs><path class="a" d="M6.72161,1.727a1.53884,1.53884,0,0,0,.004-.31409.11539.11539,0,0,0,.0716-.10315.123.123,0,0,0-.12458-.12152c-.01147.00012-.01874.00946-.02923.01258L6.6441,1.192l-.02-.00885a.10662.10662,0,0,0-.02161-.00953.51551.51551,0,0,0-.07348-.01342A2.6712,2.6712,0,0,1,6.817.62109a5.63786,5.63786,0,0,0,.35352-.6123L7.15289,0a5.64741,5.64741,0,0,1-.35254.61035,2.66,2.66,0,0,0-.29108.54621.51846.51846,0,0,0-.17981-.00092A2.69457,2.69457,0,0,0,5.99175.64453,5.596,5.596,0,0,1,5.58453.06934L5.567.08008a5.71988,5.71988,0,0,0,.40918.57666,2.73646,2.73646,0,0,1,.33325.5025.34073.34073,0,0,0-.07825.014l-.01391.00659c-.00635.00446-.01837.00562-.023.01093l.00043.00878c-.01044-.00335-.0174-.01287-.02887-.0133a.1231.1231,0,0,0-.12793.118.11544.11544,0,0,0,.06872.1051,1.5423,1.5423,0,0,0-.00427.319c-.89862-.47967-3.12811-.60766-3.39966.71259C2.58721,3.002,3.64977,3.696,3.64977,3.696a1.3099,1.3099,0,0,0,.8816,1.04828s-.18341.5072-.04859.61841a.20177.20177,0,0,0,.2378.04352c-.17151.44287-.23157.79346-.0271.92517,0,0-.38373.78784-.1919.92383.19183.13605.41559-.45026.41559-.45026s-.23633.584-.0611.61609c.17524.032.39637-.57037.39637-.57037s.02252.3634.175.13421l.41046-.617a1.75372,1.75372,0,0,0,.35-.78638.86364.86364,0,0,0,.13171.12256V5.7a.08382.08382,0,0,0,.07569-.00128l-.00006.00134.0028-.00256a.2162.2162,0,0,0,.09052-.06476l.0014-.016a.83717.83717,0,0,0,.12256-.13947,1.90773,1.90773,0,0,0,.371.89063l.41047.617c.15246.22919.175-.13421.175-.13421s.22113.60241.39637.57037c.17523-.0321-.0611-.61609-.0611-.61609s.22375.58631.41559.45026c.19177-.136-.1919-.92383-.1919-.92383.20447-.13171.14441-.4823-.0271-.92517a.20169.20169,0,0,0,.23774-.04352C8.47344,5.25146,8.29,4.74426,8.29,4.74426A1.30987,1.30987,0,0,0,9.17162,3.696s1.06257-.694.94715-1.25494C9.84747,1.12207,7.622,1.24854,6.72161,1.727Z"/></svg>