<svg xmlns="http://www.w3.org/2000/svg" viewBox="0 0 117.69994 117.69994"><defs><style>.a{fill:#594947;}.b{fill:#beac8f;}</style></defs><circle class="a" cx="58.84997" cy="58.84997" r="58.84997"/><path class="b" d="M107.63156,45.62851c-2.90779-13.59624-36.43187-9.414-45.7485-3.44082a15.88448,15.88448,0,0,0,.11978-3.87559,1.09635,1.09635,0,0,0,.68019-.98,1.16869,1.16869,0,0,0-1.18256-1.15462l-.001,0c-.109.00115-.178.0899-.27776.11944l.00637-.08407c-.03364-.03366-.14032-.05275-.18963-.08409a1.0118,1.0118,0,0,0-.20529-.09043,4.89882,4.89882,0,0,0-.69818-.12759,25.37982,25.37982,0,0,1,2.73539-5.12163,53.55867,53.55867,0,0,0,3.35873-5.81752l-.167-.0835A53.6599,53.6599,0,0,1,62.71262,30.687a25.27448,25.27448,0,0,0-2.76553,5.18953,4.9284,4.9284,0,0,0-1.7084-.00871,25.60706,25.60706,0,0,0-3.20858-4.85607,53.17014,53.17014,0,0,1-3.8691-5.465l-.167.10207a54.34773,54.34773,0,0,0,3.88766,5.4789A26.00166,26.00166,0,0,1,58.04794,35.902a3.24054,3.24054,0,0,0-.74344.13339,1.154,1.154,0,0,0-.13225.06262c-.06028.04236-.17454.0534-.21861.10382.00177.02784.00233.05568.004.08352-.09911-.03193-.16527-.1224-.27428-.12643a1.16967,1.16967,0,0,0-1.21547,1.12152,1.09694,1.09694,0,0,0,.653.99859,16.2104,16.2104,0,0,0,.05,4.14294C47.3818,36.32629,13.01414,31.855,10.06838,45.62851,8.9303,50.95,22.93986,58.26105,22.93986,58.26105c1.71474,5.54,6.11832,8.68922,11.90754,10.60649,0,0-2.04044,4.76411-.24867,5.91429a3.34391,3.34391,0,0,0,3.0676.56173c-1.92753,4.15328-2.48384,7.48646.21023,8.87547,0,0-4.43292,7.34157-1.89769,8.76424,2.35456,1.32123,4.68319-3.32246,5.00371-3.99218-.31721.67353-2.46909,5.41468-.36959,5.79913,2.26033.41393,4.72612-5.24315,4.72612-5.24315s.50707,3.50663,2.31937,1.3955c1.81223-2.11111,4.87852-5.683,4.87852-5.683,1.97425-1.55133,3.23775-4.16405,4.05884-7.38647a9.26345,9.26345,0,0,0,1.549,1.20941v-.03826a.79645.79645,0,0,0,.71908-.01218l-.00063.01275c.01161-.007.01566-.01743.0267-.02436a2.05389,2.05389,0,0,0,.86-.6153l.01339-.15251a8.66441,8.66441,0,0,0,1.16808-1.09914c.81261,3.55285,2.11259,6.441,4.2316,8.10607,0,0,3.06628,3.57193,4.87857,5.683s2.31931-1.39551,2.31931-1.39551,2.46578,5.65709,4.72612,5.24315c2.09956-.38445-.05231-5.1256-.36952-5.79913.32051.66972,2.64915,5.31337,5.00364,3.99218,2.53528-1.42266-1.89768-8.76424-1.89768-8.76424,2.69407-1.389,2.13776-4.72219.21029-8.87547a3.34377,3.34377,0,0,0,3.06753-.56173c1.79178-1.15014-.24867-5.91429-.24867-5.91429,5.78914-1.91728,10.19277-5.06648,11.90749-10.6065C94.76008,58.26105,108.76969,50.95,107.63156,45.62851Z"/></svg>