<svg xmlns="http://www.w3.org/2000/svg" viewBox="0 0 118.0215 118.02363"><defs><style>.a{fill:#beac8f;}</style></defs><path class="a" d="M117.99078,52.48355v-.02a.96817.96817,0,0,0-.08-.24.614.614,0,0,0-.11-.23.43509.43509,0,0,0-.1-.16c-.03-.04-.05-.07-.07-.1-.07-.07-.13995-.13-.21-.19a1.42568,1.42568,0,0,0-.2-.14,1.01412,1.01412,0,0,0-.24-.1,1.34935,1.34935,0,0,0-.24-.08.35994.35994,0,0,0-.11005-.02h-.02l-10.64-2.21c-.03-.01-.07-.02-.11-.03-.11005-.02-.21-.05-.31-.07-1.45-.32-1.57-.59-2.03-1.96q-.03-.105-.09-.3c-.4-1.45-.87-2.87-1.41-4.27a45.674,45.674,0,0,0-3.11-6.46.16147.16147,0,0,1-.04-.07c-.05-.08-.08-.16-.11-.2-.63-1.02-.83-1.55-.14-2.68l.14-.22,1.79-2.73,4.2-6.44.06-.09.01-.02a.93969.93969,0,0,0,.12-.22,2.3305,2.3305,0,0,0,.09-.24,1.99874,1.99874,0,0,0,.04-.24,1.22022,1.22022,0,0,0,.01-.27.507.507,0,0,0-.02-.13.58244.58244,0,0,0-.03-.19,1.17253,1.17253,0,0,0-.09-.24.94069.94069,0,0,0-.12-.22l-.01-.01a1.73036,1.73036,0,0,0-.17-.21l-8.61-8.59a.90848.90848,0,0,0-.21-.18v-.01a1.26422,1.26422,0,0,0-.23-.12.67983.67983,0,0,0-.24-.08.58329.58329,0,0,0-.18-.04c-.04-.01-.1-.01-.13-.02a1.27262,1.27262,0,0,0-.28.02,1.0029,1.0029,0,0,0-.24.04,1.17137,1.17137,0,0,0-.24.09,2.24072,2.24072,0,0,0-.22.11c-.04.02-.06.05-.1.07l-.01.01-9.17,6.02a.055.055,0,0,0-.05.03c-.08.05-.16.1-.23.15a2.56014,2.56014,0,0,1-1.27.5,2.62257,2.62257,0,0,1-1.17-.39,3.172,3.172,0,0,0-.27-.17c-.07-.04-.14-.08-.22-.12-.17-.09-.35-.18-.52-.28-.01,0-.02,0-.02-.01a44.39956,44.39956,0,0,0-10.13-4.05c-.05-.02-.1-.03-.14-.05005-.09-.02-.17-.05-.26-.07a2.15674,2.15674,0,0,1-1.72-1.89c-.01-.03-.01-.06-.02-.08l-2.3-10.98-.02-.1v-.03a1.17035,1.17035,0,0,0-.09-.24.94257.94257,0,0,0-.1-.23,1.53679,1.53679,0,0,0-.13995-.21,1.62068,1.62068,0,0,0-.18-.19c-.04-.03-.08-.07-.1-.08a.57055.57055,0,0,0-.16-.11,2.38576,2.38576,0,0,0-.23-.11,1.01088,1.01088,0,0,0-.25-.06h-.01a.62551.62551,0,0,0-.27-.03h-12.17a1.23986,1.23986,0,0,0-.27.03h-.01a1.08664,1.08664,0,0,0-.24.07,1.62176,1.62176,0,0,0-.23.11005.86169.86169,0,0,0-.16.1c-.03.03-.07.06-.1.09a1.12336,1.12336,0,0,0-.18.2.6598.6598,0,0,0-.14.2c-.04.07-.08.15-.12.23a2.16384,2.16384,0,0,0-.07.24.42484.42484,0,0,0-.02.11v.02l-2.24,10.74-.06.33c-.33,1.46-.6,1.58-1.97,2.03a.64838.64838,0,0,0-.13.04c-.06.02-.11005.04-.18005.06-.65.18-1.29.37006-1.92.58a1.72734,1.72734,0,0,0-.21.07,44.75331,44.75331,0,0,0-8.59,3.87q-.165.09-.27.15c-.18.1-.33.2-.48.28a2.01977,2.01977,0,0,1-.96.28,2.76612,2.76612,0,0,1-1.46-.56c-.01-.01-.02-.02-.03-.02l-9.14-5.97-.08-.07c-.01-.01-.02-.01-.03-.02a2.25188,2.25188,0,0,0-.22-.11,1.06367,1.06367,0,0,0-.25-.09.85388.85388,0,0,0-.23-.04,2.45523,2.45523,0,0,0-.28-.02c-.03.01-.09.01-.13.02a1.16877,1.16877,0,0,0-.18.04.91543.91543,0,0,0-.23.09,1.0067,1.0067,0,0,0-.23.12l-.01.01a1.11629,1.11629,0,0,0-.21.17l-8.6,8.61a.8334.8334,0,0,0-.16.21c-.01,0-.01,0-.01.01a.93956.93956,0,0,0-.12.22,1.22326,1.22326,0,0,0-.1.24.41286.41286,0,0,0-.02.19.2535.2535,0,0,0-.02.12.8776.8776,0,0,0,.01.28,1.00556,1.00556,0,0,0,.04.24,1.17414,1.17414,0,0,0,.09.24.94.94,0,0,0,.12.22.87916.87916,0,0,0,.06.1l.01.01,1.82,2.77,4.2,6.4c.00995.02.00995.04.03.05.05.09.1.16.14.24005a1.80167,1.80167,0,0,1,.19,2.29c-.03.06-.06.11-.09.18a1.403,1.403,0,0,0-.15.24c-.08.14-.17.29-.25.46-.05.09-.1.18-.14.27a44.75024,44.75024,0,0,0-4.08,10.13995,1.1394,1.1394,0,0,0-.04.15c-.02.09-.05.18-.07.25a2.18076,2.18076,0,0,1-1.55,1.68h-.01a2.13362,2.13362,0,0,1-.35.06.17.17,0,0,1-.07.01l-10.96,2.3-.11.02c-.01,0-.02.01-.03.01a2.1735,2.1735,0,0,0-.24.06995,2.55309,2.55309,0,0,0-.24.11,1.55363,1.55363,0,0,0-.39.33.65183.65183,0,0,0-.08.09.908.908,0,0,0-.11.16.94257.94257,0,0,0-.1.23,1.0419,1.0419,0,0,0-.08.25v.01a1.2276,1.2276,0,0,0-.02.27v12.16a1.23979,1.23979,0,0,0,.03.27v.02a1.12531,1.12531,0,0,0,.08.24.69525.69525,0,0,0,.11.23.43577.43577,0,0,0,.1.16.60779.60779,0,0,1,.07.1c.07.07.14.13.21.19a1.42293,1.42293,0,0,0,.2.14,1.01478,1.01478,0,0,0,.24.1.84286.84286,0,0,0,.24.06994.2014.2014,0,0,0,.11.03h.02l10.64,2.21c.03.01.07.02.11.03.11.02.21.05.31.06l.25.06c1.17.3,1.34.59,1.73,1.77.02.04.03.09.05.13a.49515.49515,0,0,0,.04.13,44.71787,44.71787,0,0,0,4.54,10.82v.01c.08.16.14.28.18.35.05.08.09.14.13.21l.11.19a1.90708,1.90708,0,0,1-.1,2.28l-.14.22-5.99,9.16-.06.1-.01.02a.94349.94349,0,0,0-.12.22,2.3398,2.3398,0,0,0-.09.24,2.00007,2.00007,0,0,0-.04.24,1.22375,1.22375,0,0,0-.01.27.58459.58459,0,0,0,.02.13.62777.62777,0,0,0,.03.19,1.16977,1.16977,0,0,0,.09.24.94256.94256,0,0,0,.12.22.0098.0098,0,0,1,.01.0096v.0004a1.63029,1.63029,0,0,0,.17.2l8.61005,8.6a.90892.90892,0,0,0,.21.18v.01c.08.04.15.08.23.12a.96888.96888,0,0,0,.24.08.58531.58531,0,0,0,.18.04c.04.01.1.01.13.02a2.45522,2.45522,0,0,0,.28-.02,1.00547,1.00547,0,0,0,.24-.04l.24005-.09a2.26089,2.26089,0,0,0,.22-.11c.04-.02.06-.05.1-.07l.01-.02,9.17-6.00994a.055.055,0,0,0,.05-.03c.08-.06.16-.1.23-.15a1.84977,1.84977,0,0,1,2.39-.13c.1.06006.21.12.32.19.16.09.35.19.55.3a44.32512,44.32512,0,0,0,10.16,4.1l.08.03c.08.03.16.05.24.08a2.20394,2.20394,0,0,1,1.98,1.95c.01.03.01.05.02.09l2.3,10.98.02.1v.03a1.17107,1.17107,0,0,0,.09.24.94187.94187,0,0,0,.1.23,1.42733,1.42733,0,0,0,.14.2,1.71015,1.71015,0,0,0,.18.2,1.13923,1.13923,0,0,1,.1.08.539.539,0,0,0,.16.1,1.26574,1.26574,0,0,0,.23.12c.08.02.16.04.25.06h.01a1.23986,1.23986,0,0,0,.27.03H65.28073a1.24032,1.24032,0,0,0,.27-.03h.01a1.08755,1.08755,0,0,0,.24-.07,1.62869,1.62869,0,0,0,.23-.11.57082.57082,0,0,0,.16-.11.7007.7007,0,0,0,.1-.08,1.79574,1.79574,0,0,0,.19-.2.85966.85966,0,0,0,.13-.2c.04-.07.07995-.15.12-.23a2.18311,2.18311,0,0,0,.07-.24.51849.51849,0,0,0,.02-.11v-.02l2.24-10.75.06-.32.06-.25c.29-1.19.61-1.36,1.82-1.76a.6485.6485,0,0,1,.09-.02c.04-.01.09-.03.13-.04a45.42554,45.42554,0,0,0,10.9-4.59.076.076,0,0,0,.04-.02,2.29,2.29,0,0,0,.23-.12,1.37261,1.37261,0,0,0,.2-.13,2.64921,2.64921,0,0,1,1.24-.44,2.4619,2.4619,0,0,1,1.23.43l.23.14c.01.01.02.02.03.02l.28.18,3.93,2.57,1.14.74,3.37,2.21.42.27.08.07c.01.01.02.01.03.02a2.2677,2.2677,0,0,0,.22.11,1.06562,1.06562,0,0,0,.25.09,1.57907,1.57907,0,0,0,.23.04,1.2881,1.2881,0,0,0,.28.01.61513.61513,0,0,0,.13-.01,1.16877,1.16877,0,0,0,.18-.04.92028.92028,0,0,0,.23-.09,1.66992,1.66992,0,0,0,.23-.12l.01-.01a1.1178,1.1178,0,0,0,.21-.17l8.6-8.61a.83458.83458,0,0,0,.16-.21.00979.00979,0,0,0,.01-.00958v-.00042a.94136.94136,0,0,0,.12-.22,1.22611,1.22611,0,0,0,.1-.24.41358.41358,0,0,0,.02-.19.254.254,0,0,0,.02-.12.8773.8773,0,0,0-.01-.28,1.0024,1.0024,0,0,0-.04-.24,1.17383,1.17383,0,0,0-.09-.24,1.26739,1.26739,0,0,0-.12-.23l-.06-.09-.01-.02-6.02-9.16a.08621.08621,0,0,0-.03-.06c-.05-.08-.1-.15-.13995-.23a1.80407,1.80407,0,0,1-.36005-.55,1.86507,1.86507,0,0,1,.27-1.93,1.76926,1.76926,0,0,0,.14-.23c.12-.2.25-.45.39-.73a44.05933,44.05933,0,0,0,4.05-10.06v-.01a1.36346,1.36346,0,0,0,.07-.22,2.25588,2.25588,0,0,1,2.01-2c.01,0,.03-.01.04-.01l10.96-2.29.11-.02c.01,0,.02-.01.03-.01a2.16536,2.16536,0,0,0,.24-.07,2.55564,2.55564,0,0,0,.24-.11,1.55438,1.55438,0,0,0,.38995-.33.64579.64579,0,0,0,.08-.09.90618.90618,0,0,0,.11-.16c.01-.02.02-.03.03-.05a1.34481,1.34481,0,0,0,.07-.18,1.20751,1.20751,0,0,0,.08-.25v-.01a1.227,1.227,0,0,0,.02-.27v-12.16A1.24392,1.24392,0,0,0,117.99078,52.48355Zm-36.62,23.72a23.29224,23.29224,0,0,1-1.78,2.08,15.056,15.056,0,0,1-1.12,1.14c-.53.52-1.09,1.01-1.66,1.47-.47.39-.95.76-1.45,1.1a26.61125,26.61125,0,0,1-3.01,1.88.14945.14945,0,0,1-.07.03,24.85235,24.85235,0,0,1-4.02,1.76,27.87909,27.87909,0,0,1-9.08,1.56005h-.16a28.21112,28.21112,0,0,1-9.66-54.72c.1-.04.2-.07.3-.1a27.34639,27.34639,0,0,1,6.36-1.43,26.64573,26.64573,0,0,1,2.98-.16h.13c.01.01.01,0,.01,0a28.24013,28.24013,0,0,1,27.96,25.66c.08.83.12,1.68.12,2.53,0,.51-.01,1.03-.05,1.53a28.00453,28.00453,0,0,1-5.8,15.67Z"/></svg>