<svg xmlns="http://www.w3.org/2000/svg" viewBox="0 0 12.77263 7.42225"><defs><style>.a{fill:#a53050;}</style></defs><path class="a" d="M6.71136,1.829a1.681,1.681,0,0,0,.01428-.41614.11539.11539,0,0,0,.0716-.10315.123.123,0,0,0-.12458-.12152c-.01147.00012-.01874.00946-.02923.01258L6.6441,1.192l-.02-.00885a.10662.10662,0,0,0-.02161-.00953.51551.51551,0,0,0-.07348-.01342A2.6712,2.6712,0,0,1,6.817.62109a5.63786,5.63786,0,0,0,.35352-.6123L7.15289,0a5.64741,5.64741,0,0,1-.35254.61035,2.66,2.66,0,0,0-.29108.54621.51846.51846,0,0,0-.17981-.00092A2.69457,2.69457,0,0,0,5.99175.64453,5.596,5.596,0,0,1,5.58453.06934L5.567.08008a5.71988,5.71988,0,0,0,.40918.57666,2.73646,2.73646,0,0,1,.33325.5025.34073.34073,0,0,0-.07825.014l-.01391.00659c-.00635.00446-.01837.00562-.023.01093l.00043.00878c-.01044-.00335-.0174-.01287-.02887-.0133a.1231.1231,0,0,0-.12793.118.11544.11544,0,0,0,.06872.1051,1.7113,1.7113,0,0,0,.00757.44538c-.90472-.646-4.54321-1.128-4.85468.32812C1.1397,2.743,2.61419,3.51257,2.61419,3.51257a1.75309,1.75309,0,0,0,1.2533,1.11634s-.21472.5014-.02619.62249a.35194.35194,0,0,0,.32288.05909c-.20288.43713-.26141.788.02215.9342,0,0-.46661.77271-.19976.92242s.53094-.42919.53094-.42919-.28107.5758-.04315.61938c.23785.04358.49737-.55188.49737-.55188s.05341.36908.24415.14691c.19073-.22223.51348-.59814.51348-.59814a1.433,1.433,0,0,0,.42719-.80182.87713.87713,0,0,0,.163.15167V5.7a.08382.08382,0,0,0,.07569-.00128l-.00006.00134.0028-.00256a.2162.2162,0,0,0,.09052-.06476l.0014-.016a.84168.84168,0,0,0,.12488-.14209,1.51169,1.51169,0,0,0,.44342.87958s.32276.37591.51349.59814c.19074.22217.24414-.14691.24414-.14691s.25952.59546.49744.55188c.23785-.04358-.04322-.61938-.04322-.61938s.2641.57891.53095.42919-.19977-.92242-.19977-.92242c.28357-.14624.225-.49707.02216-.9342a.35192.35192,0,0,0,.32287-.05909c.1886-.12109-.02618-.62249-.02618-.62249a1.75309,1.75309,0,0,0,1.25329-1.11634s1.47455-.76953,1.35474-1.32965C11.22082.74615,7.67529,1.19629,6.71136,1.829Z"/></svg>