<svg xmlns="http://www.w3.org/2000/svg" viewBox="0 0 12.77263 7.42225"><defs><style>.a{fill:#a53050;}</style></defs><path class="a" d="M6.6925,1.92859a1.78544,1.78544,0,0,0,.03314-.51569.11539.11539,0,0,0,.0716-.10315.123.123,0,0,0-.12458-.12152c-.01147.00012-.01874.00946-.02923.01258L6.6441,1.192l-.02-.00885a.10662.10662,0,0,0-.02161-.00953.51551.51551,0,0,0-.07348-.01342A2.6712,2.6712,0,0,1,6.817.62109a5.63786,5.63786,0,0,0,.35352-.6123L7.15289,0a5.64741,5.64741,0,0,1-.35254.61035,2.66,2.66,0,0,0-.29108.54621.51846.51846,0,0,0-.17981-.00092A2.69457,2.69457,0,0,0,5.99175.64453,5.596,5.596,0,0,1,5.58453.06934L5.567.08008a5.71988,5.71988,0,0,0,.40918.57666,2.73646,2.73646,0,0,1,.33325.5025.34073.34073,0,0,0-.07825.014l-.01391.00659c-.00635.00446-.01837.00562-.023.01093l.00043.00878c-.01044-.00335-.0174-.01287-.02887-.0133a.1231.1231,0,0,0-.12793.118.11544.11544,0,0,0,.06872.1051,1.845,1.845,0,0,0,.02875.57648C5.52868,1.24847.35266.38782.006,1.95618c-.12366.55938,1.71289,1.39514,1.71289,1.39514a2.26392,2.26392,0,0,0,1.58,1.17621s-.24231.49633-.00653.626a.52133.52133,0,0,0,.39765.07282c-.23041.43213-.28766.7832.06543.94214,0,0-.53943.75934-.20661.92114.33276.1618.63226-.41064.63226-.41064s-.32043.5686-.02746.62225c.293.05371.5863-.53558.5863-.53558s.08045.37408.30481.158l.604-.58155a1.27368,1.27368,0,0,0,.493-.80371.88217.88217,0,0,0,.17791.16559V5.7a.08382.08382,0,0,0,.07569-.00128l-.00006.00134.0028-.00256a.2162.2162,0,0,0,.09052-.06476l.0014-.016a.84394.84394,0,0,0,.1269-.14441,1.32368,1.32368,0,0,0,.50714.86987l.604.58155c.22437.21606.30481-.158.30481-.158s.29327.58929.58624.53558c.293-.05365-.0274-.62225-.0274-.62225s.2995.57244.63226.41064-.2066-.92114-.2066-.92114c.35309-.15894.29577-.51.06543-.94214a.52131.52131,0,0,0,.39764-.07282c.23578-.1297-.00653-.626-.00653-.626a2.26409,2.26409,0,0,0,1.58-1.17621s1.83654-.83576,1.71289-1.39514C12.429.42841,7.50817,1.20569,6.6925,1.92859Z"/></svg>