<svg xmlns="http://www.w3.org/2000/svg" viewBox="0 0 92.11591 93.2843"><defs><style>.a{fill:#beac8f;}</style></defs><path class="a" d="M91.67917,11.21a1.5173,1.5173,0,0,0,.00934-2.12079Q87.51059,4.77545,83.33273.46173a1.51733,1.51733,0,0,0-2.171-.0091L72.63748,9.10815A45.98752,45.98752,0,0,0,8.93668,73.79L.43625,82.42132A1.5173,1.5173,0,0,0,.46616,84.5802l8.62042,8.281a1.51726,1.51726,0,0,0,2.13171-.029l8.42627-8.54785A45.9859,45.9859,0,0,0,83.32315,19.68664ZM17.848,46.64715a28.20141,28.20141,0,0,1,28.2-28.21h.01a28.07407,28.07407,0,0,1,13.81849,3.6286l-38.187,38.775A28.09039,28.09039,0,0,1,17.848,46.64715Zm56.42-.02a28.21277,28.21277,0,0,1-41.8537,24.70313L70.53739,32.65692A28.11713,28.11713,0,0,1,74.268,46.62713Z"/></svg>