<svg xmlns="http://www.w3.org/2000/svg" viewBox="0 0 1330.72122 919.05726"><defs><style>.a{fill:#beac8f;}</style></defs><path class="a" d="M1330.72122,512.58723c-.76.7-1.54,1.39-2.34,2.05-20.1,4.79-64.66,12.43-116.1-4.6a210.34028,210.34028,0,0,1-71.22-40.52c37.98-14.22,81.68994-38.06,118.09-79.12q6.015-6.78,11.31994-13.64c-129.71,19.41-268.6-39.88-346.22-39.83-157.57007-.81-347.72,7.27-531.01,90.44l.01-.02c-190.14,67.51-290.3,162.26007-368.11,262.42,68.65-77.34,139.94-136.46,214.48-171.06-80.27,67.01-145.74,194.1-214.09,322.73,72.85-72.01,161.36-163.4,240.3-193.85,11.94-5.47,25.25-10.73,39.78-15.80005.03277-.01147.06683-.0227.09961-.03418l.00494.00513-.10455.029c-14.43006,207.15992,194.47,297.98,354.74005,221.54,78.59985-30.89,111.41992-120.87011,120.92993-150.78C610.14774,900.26039,366.58817,805.04408,397.84091,613.01552l1.63837-7.85889c156.71008-36.93823,378.14184-60.73236,564.38208-74.8194,8.5199-.62,67.28992-4.27,82.43994,11.21,16.34,16.7,20.41992,26.19,18.37988,46.38-2.03991,20.19006-46.98,161.6-124.59985,222.88-77.61011,61.27-190.21008,100.85-220.59009,108.25,68.68006-5.87,119.33008-38.42,193.34009-51.25a1145.0284,1145.0284,0,0,1,120.44995-14.37c-18.74-12.06006-29.87-17.54-36.54-19.45007C1046.96121,801.40724,1245.44119,666.27723,1330.72122,512.58723Zm-345.67993,328.84c.05-.04.17993-.11.38-.2301A1.13947,1.13947,0,0,1,985.04129,841.42726Z"/><path class="a" d="M348.25534,322.63234S790.40018,49.52864,916.08511,50.97279c125.68482,1.44415,234.89368,53.10639,234.89368,53.10639C1048.64359,25.097,962.458,5.66658,906.89359.93022,678.33719-18.55211,346.21276,273.61108,0,350.2068,0,383.909,128.68085,481.95151,348.25534,322.63234Z"/><path class="a" d="M566.8085,704.84511a233.89735,233.89735,0,0,1-43.91491-76.87806H480.25534c4.16083,21.02332,45.76831,101.78687,63.87738,115.5199a57.50211,57.50211,0,0,0,20.3819,7.94019c8.21148,1.49035,13.52795.58215,19.65558.14135,7.27667.55982,77.90283-108.99694,118.46814-147.06384H646.468c-13.77527,14.3711-28.21778,30.6864-42.76166,49.05823C589.61777,671.35963,577.3912,688.61378,566.8085,704.84511Z"/></svg>